<?xml version="1.0" standalone="no"?>
<!DOCTYPE svg PUBLIC "-//W3C//DTD SVG 20010904//EN"
 "http://www.w3.org/TR/2001/REC-SVG-20010904/DTD/svg10.dtd">
<svg version="1.0" xmlns="http://www.w3.org/2000/svg"
 width="900.000000pt" height="522.000000pt" viewBox="0 0 900.000000 522.000000"
 preserveAspectRatio="xMidYMid meet">
<metadata>
Created by potrace 1.10, written by Peter Selinger 2001-2011
</metadata>
<g transform="translate(0.000000,522.000000) scale(0.100000,-0.100000)"
fill="#000000" stroke="none">
<path d="M5190 5206 c0 -9 -20 -15 -63 -20 -188 -19 -377 -219 -408 -430 -13
-88 1 -234 27 -270 8 -11 14 -26 14 -33 0 -6 18 -39 41 -73 40 -61 128 -138
198 -174 20 -10 48 -25 62 -32 35 -18 191 -27 269 -16 80 12 120 27 190 73
221 143 303 431 192 669 -41 88 -146 197 -233 244 -55 29 -164 57 -186 49 -7
-3 -13 2 -13 11 0 12 -10 16 -45 16 -31 0 -45 -4 -45 -14z"/>
<path d="M4564 4090 c-11 -4 -47 -11 -80 -15 -32 -3 -74 -14 -93 -23 -33 -16
-331 -213 -501 -331 -117 -81 -210 -145 -228 -156 -46 -28 -144 -105 -202
-159 -36 -34 -124 -115 -195 -182 -72 -67 -155 -143 -185 -169 -144 -127 -165
-166 -154 -280 6 -54 11 -64 50 -101 25 -24 65 -48 97 -59 53 -18 57 -18 104
-1 62 23 111 61 242 186 33 32 146 137 285 264 90 84 211 177 284 221 35 21
79 51 147 100 134 95 164 102 126 28 -28 -54 -71 -154 -71 -164 0 -5 -13 -37
-29 -71 -15 -35 -43 -99 -61 -143 -18 -44 -46 -108 -61 -143 -16 -34 -29 -66
-29 -71 0 -5 -6 -22 -14 -38 -34 -67 -76 -163 -76 -173 0 -6 -14 -41 -31 -78
-38 -82 -51 -114 -74 -172 -18 -48 -22 -58 -86 -195 -23 -49 -45 -99 -50 -110
-5 -11 -29 -56 -54 -100 -25 -44 -54 -100 -66 -125 -11 -25 -27 -58 -35 -75
-34 -67 -45 -135 -32 -194 41 -183 236 -263 393 -162 42 28 62 52 170 210 39
56 75 108 80 114 13 15 66 91 85 122 57 91 221 315 231 315 17 0 11 -36 -31
-200 -6 -25 -18 -72 -25 -105 -8 -33 -19 -78 -25 -100 -6 -22 -18 -67 -25
-100 -22 -93 -35 -146 -51 -196 -8 -26 -14 -55 -14 -66 0 -10 -4 -23 -9 -29
-9 -8 -33 -74 -97 -264 -14 -41 -29 -79 -33 -85 -5 -5 -11 -21 -14 -35 -3 -14
-15 -50 -26 -80 -12 -30 -31 -82 -42 -115 -11 -33 -24 -69 -29 -80 -11 -24
-37 -97 -52 -145 -5 -19 -13 -39 -17 -45 -26 -35 -45 -117 -45 -190 -1 -74 2
-84 33 -131 18 -28 54 -65 80 -82 44 -30 51 -32 142 -32 90 0 98 2 135 29 83
61 95 82 174 311 7 19 18 49 25 65 17 43 36 96 45 130 5 17 18 55 30 85 12 30
25 66 30 80 5 14 18 50 30 80 12 30 26 69 31 85 5 17 13 39 17 50 11 26 43
117 99 280 25 72 49 134 54 139 5 6 9 19 9 31 0 11 6 29 14 40 7 11 16 31 19
45 3 14 19 63 37 110 48 129 70 191 81 230 6 19 15 39 20 44 5 6 9 18 9 28 0
9 6 32 14 50 21 48 71 193 91 263 9 33 23 75 31 93 8 18 14 42 14 53 0 11 5
30 12 42 11 21 119 328 138 392 5 17 25 75 45 130 20 55 47 134 60 175 13 41
33 100 45 130 12 30 28 75 36 100 7 25 18 52 24 60 10 16 9 17 223 -101 54
-30 114 -62 132 -71 18 -10 53 -43 77 -75 44 -60 48 -65 94 -143 15 -25 44
-68 65 -97 22 -29 39 -55 39 -58 0 -3 25 -45 57 -93 184 -284 198 -300 285
-327 52 -16 60 -16 105 -1 62 21 115 75 138 143 18 51 18 54 -1 110 -10 32
-22 60 -25 63 -4 3 -20 28 -35 56 -16 29 -60 99 -98 155 -38 57 -88 133 -111
169 -208 324 -221 343 -246 371 -13 14 -31 29 -39 33 -8 3 -28 14 -45 24 -16
10 -61 36 -100 57 -96 52 -172 93 -225 123 -245 135 -356 183 -485 212 -22 5
-83 20 -135 33 -151 39 -198 48 -310 58 -58 5 -121 13 -141 19 -43 12 -166 12
-195 0z"/>
<path d="M2780 1121 c-8 -5 -33 -12 -55 -15 -55 -9 -136 -61 -210 -135 -100
-100 -148 -217 -148 -366 -1 -210 107 -380 301 -477 l87 -43 140 1 140 0 80
42 c137 70 212 155 279 315 23 53 23 271 0 324 -103 244 -270 363 -507 363
-51 0 -99 -4 -107 -9z"/>
</g>
</svg>
