<?xml version="1.0" standalone="no"?>
<!DOCTYPE svg PUBLIC "-//W3C//DTD SVG 20010904//EN"
 "http://www.w3.org/TR/2001/REC-SVG-20010904/DTD/svg10.dtd">
<svg version="1.0" xmlns="http://www.w3.org/2000/svg"
 width="256.000000pt" height="256.000000pt" viewBox="0 0 256.000000 256.000000"
 preserveAspectRatio="xMidYMid meet">
<metadata>
Created by potrace 1.10, written by Peter Selinger 2001-2011
</metadata>
<g transform="translate(0.000000,256.000000) scale(0.100000,-0.100000)"
fill="#000000" stroke="none">
<path d="M625 2239 c-38 -10 -81 -21 -95 -23 -115 -22 -210 -66 -273 -125 -16
-14 -61 -80 -100 -146 -39 -66 -91 -151 -115 -189 -24 -38 -40 -72 -35 -76 12
-10 302 -140 313 -140 5 0 23 26 39 58 l30 57 1 -532 0 -533 595 0 595 0 0
528 0 527 41 -72 c22 -40 45 -73 50 -73 8 0 288 137 297 145 1 1 -20 42 -49
91 -28 49 -76 138 -106 197 -92 185 -143 224 -368 281 -216 54 -210 54 -242
15 -47 -55 -66 -71 -121 -96 -97 -45 -202 -21 -287 65 -25 25 -45 49 -45 54 0
13 -48 8 -125 -13z m457 -487 c123 -61 132 -273 15 -338 l-39 -21 34 -7 c40
-7 85 -50 97 -92 14 -52 12 -135 -4 -185 -14 -40 -28 -58 -73 -92 l-55 -42
-112 0 c-105 0 -114 2 -153 28 -47 31 -80 86 -89 152 l-6 45 80 0 80 0 6 -52
c5 -40 13 -59 32 -76 33 -28 77 -28 109 1 23 20 26 30 27 100 2 73 0 80 -26
107 -23 24 -37 30 -72 30 l-43 0 0 54 0 55 46 3 c62 4 86 35 92 117 4 49 0 66
-18 95 -19 31 -27 36 -60 36 -47 0 -80 -35 -80 -86 l0 -34 -76 0 -77 0 7 46
c11 86 65 151 144 174 54 16 164 6 214 -18z"/>
<path d="M1963 1863 c58 -103 138 -255 135 -258 -2 -3 -98 -49 -214 -104
l-209 -100 -3 -455 -2 -455 -397 -1 c-218 0 -398 -2 -400 -4 -2 -1 -6 -27 -9
-58 l-6 -55 38 -6 c22 -4 57 -9 79 -12 22 -4 67 -11 100 -16 33 -6 74 -12 90
-14 17 -3 46 -7 65 -11 19 -3 51 -8 70 -10 19 -3 105 -16 190 -29 85 -14 171
-27 190 -30 19 -3 49 -8 65 -11 17 -3 48 -7 70 -10 22 -3 64 -9 94 -15 30 -5
62 -9 72 -9 20 0 28 27 43 145 4 28 18 118 32 200 14 83 27 164 29 180 2 17
21 137 42 268 36 231 38 238 52 205 26 -62 39 -93 45 -114 8 -25 12 -24 151
19 44 14 98 30 120 36 71 19 72 8 -14 244 -84 228 -96 252 -160 310 -47 43
-63 51 -228 122 -135 59 -136 59 -130 48z"/>
</g>
</svg>
