<?xml version="1.0" standalone="no"?>
<!DOCTYPE svg PUBLIC "-//W3C//DTD SVG 20010904//EN"
 "http://www.w3.org/TR/2001/REC-SVG-20010904/DTD/svg10.dtd">
<svg version="1.0" xmlns="http://www.w3.org/2000/svg"
 width="900.000000pt" height="900.000000pt" viewBox="0 0 900.000000 900.000000"
 preserveAspectRatio="xMidYMid meet">
<metadata>
Created by potrace 1.10, written by Peter Selinger 2001-2011
</metadata>
<g transform="translate(0.000000,900.000000) scale(0.100000,-0.100000)"
fill="#000000" stroke="none">
<path d="M695 8011 c-51 -23 -93 -65 -116 -116 -18 -38 -19 -92 -19 -1047 0
-1114 -3 -1061 64 -1121 93 -84 216 -71 293 31 l33 44 0 901 c0 551 4 908 10
917 8 13 411 15 3530 15 3119 0 3522 -2 3530 -15 6 -9 10 -1038 10 -2736 0
-2161 -3 -2724 -12 -2737 -12 -16 -107 -17 -1313 -19 l-1300 -3 -36 -24 c-105
-71 -122 -212 -37 -299 64 -66 -39 -62 1508 -62 1358 0 1410 1 1452 19 53 23
90 62 112 119 15 39 16 276 16 3007 0 2056 -3 2972 -11 2992 -21 56 -61 102
-112 128 l-51 25 -3755 0 c-3622 0 -3757 -1 -3796 -19z"/>
<path d="M2517 6050 c-279 -35 -597 -178 -812 -363 -280 -241 -443 -524 -532
-922 -24 -111 -24 -450 0 -543 9 -35 17 -71 17 -80 0 -10 15 -65 34 -123 174
-542 601 -932 1169 -1068 97 -23 253 -34 402 -27 400 16 745 167 1031 451 224
223 366 481 436 800 20 86 23 129 23 315 0 186 -3 229 -23 315 -35 161 -64
242 -139 394 -148 300 -430 575 -735 716 -115 53 -188 77 -353 116 -92 22
-404 34 -518 19z"/>
<path d="M6983 5661 c-18 -5 -48 -20 -68 -35 -67 -52 -1315 -1308 -1315 -1324
0 -24 251 -272 275 -272 12 0 256 237 667 648 679 678 698 699 698 783 0 130
-130 231 -257 200z"/>
<path d="M5210 3886 c-19 -7 -154 -102 -300 -212 -146 -109 -275 -206 -286
-214 -29 -20 -409 -305 -537 -402 -354 -269 -524 -364 -806 -449 -195 -59
-303 -73 -556 -74 -183 0 -249 4 -325 18 -111 22 -231 51 -280 68 -172 61
-328 134 -435 204 -37 25 -70 45 -73 45 -2 0 -21 13 -41 29 -64 50 -100 64
-172 63 -72 0 -97 -11 -157 -66 -82 -75 -260 -354 -381 -596 -18 -36 -37 -72
-41 -81 -91 -179 -208 -544 -231 -719 -4 -36 -13 -96 -18 -135 -6 -38 -10 -96
-11 -127 0 -56 1 -59 63 -130 34 -40 80 -92 103 -115 l41 -43 1664 0 1664 0
72 75 c114 118 121 132 127 255 14 280 19 343 36 442 41 229 69 305 178 466
23 35 42 65 42 66 0 3 298 457 329 501 110 155 571 861 580 886 53 153 -97
301 -249 245z"/>
</g>
</svg>
