<?xml version="1.0" standalone="no"?>
<!DOCTYPE svg PUBLIC "-//W3C//DTD SVG 20010904//EN"
 "http://www.w3.org/TR/2001/REC-SVG-20010904/DTD/svg10.dtd">
<svg version="1.0" xmlns="http://www.w3.org/2000/svg"
 width="900.000000pt" height="921.000000pt" viewBox="0 0 900.000000 921.000000"
 preserveAspectRatio="xMidYMid meet">
<metadata>
Created by potrace 1.10, written by Peter Selinger 2001-2011
</metadata>
<g transform="translate(0.000000,921.000000) scale(0.100000,-0.100000)"
fill="#000000" stroke="none">
<path d="M1880 9153 c-126 -25 -216 -52 -295 -90 -165 -79 -320 -213 -421
-363 -51 -76 -111 -208 -143 -309 l-26 -86 -3 -3635 c-3 -2772 -1 -3659 9
-3735 22 -185 55 -275 166 -446 126 -194 336 -354 548 -416 193 -57 -6 -53
2778 -53 2541 0 2560 0 2660 21 55 11 108 24 118 30 10 5 25 9 33 9 9 0 46 14
83 32 264 123 484 365 562 618 55 181 51 -134 51 3863 0 3328 -2 3683 -16
3740 -57 224 -135 371 -272 510 -172 175 -355 268 -613 311 -85 14 -357 16
-2620 15 -2183 -1 -2534 -3 -2599 -16z m5424 -692 c15 -12 16 -306 16 -3867 0
-3489 -1 -3854 -16 -3868 -14 -14 -283 -16 -2814 -16 -2757 0 -2799 0 -2810
19 -7 14 -10 1235 -10 3870 0 3177 2 3852 13 3863 20 20 5596 19 5621 -1z"/>
<path d="M2405 7046 c-13 -10 -15 -52 -13 -346 l3 -335 330 -5 c182 -3 336 -3
343 -1 9 2 12 79 12 341 0 260 -3 341 -12 347 -22 13 -645 13 -663 -1z"/>
<path d="M3815 7047 c-13 -7 -15 -55 -15 -342 0 -256 3 -336 13 -342 14 -9
2776 -7 2786 2 3 4 7 155 7 336 1 279 -1 331 -13 341 -12 10 -320 12 -1389 13
-756 0 -1381 -3 -1389 -8z"/>
<path d="M2402 5628 c-9 -9 -12 -95 -12 -335 0 -310 1 -323 20 -333 12 -7 131
-9 342 -8 l323 3 0 340 0 340 -330 3 c-249 2 -334 -1 -343 -10z"/>
<path d="M3813 5633 c-10 -4 -13 -80 -13 -333 0 -315 1 -330 19 -340 13 -7
408 -10 1209 -10 1139 0 1190 1 1205 18 15 16 17 54 17 333 0 232 -3 318 -12
327 -9 9 -291 12 -1212 11 -661 0 -1207 -3 -1213 -6z"/>
<path d="M2402 4218 c-19 -19 -17 -651 2 -667 9 -8 108 -11 342 -9 l329 3 0
340 0 340 -330 3 c-249 2 -334 -1 -343 -10z"/>
<path d="M3813 4223 c-18 -7 -19 -653 -1 -671 19 -19 2761 -17 2780 1 10 11
13 79 12 323 0 170 -4 319 -8 332 l-7 22 -1382 -1 c-760 0 -1388 -3 -1394 -6z"/>
<path d="M2412 2820 l-22 -9 2 -338 3 -338 340 0 340 0 0 345 0 345 -320 2
c-180 1 -330 -2 -343 -7z"/>
<path d="M3823 2820 l-23 -9 0 -335 c0 -185 4 -337 9 -340 5 -3 552 -6 1217
-6 963 0 1209 2 1216 12 4 7 8 157 8 334 0 298 -1 322 -18 337 -17 16 -114 17
-1203 16 -673 0 -1194 -4 -1206 -9z"/>
</g>
</svg>
