<?xml version="1.0" standalone="no"?>
<!DOCTYPE svg PUBLIC "-//W3C//DTD SVG 20010904//EN"
 "http://www.w3.org/TR/2001/REC-SVG-20010904/DTD/svg10.dtd">
<svg version="1.0" xmlns="http://www.w3.org/2000/svg"
 width="300.000000pt" height="173.000000pt" viewBox="0 0 300.000000 173.000000"
 preserveAspectRatio="xMidYMid meet">
<metadata>
Created by potrace 1.10, written by Peter Selinger 2001-2011
</metadata>
<g transform="translate(0.000000,173.000000) scale(0.050000,-0.050000)"
fill="#000000" stroke="none">
<path d="M2773 3328 c-680 -164 -962 -982 -532 -1540 467 -604 1453 -424 1679
308 222 717 -422 1408 -1147 1232z"/>
<path d="M2058 1497 c-434 -281 -878 -1061 -730 -1286 l33 -51 1639 0 1639 0
32 49 c155 236 -310 1036 -761 1309 l-106 64 -107 -81 c-403 -305 -923 -320
-1341 -38 -62 42 -119 86 -126 97 -19 31 -35 26 -172 -63z"/>
</g>
</svg>
